<?xml version="1.0" encoding="UTF-8"?>
<!-- Generator: Adobe Illustrator 23.0.3, SVG Export Plug-In . SVG Version: 6.00 Build 0)  -->
<svg version="1.1" id="Logo" xmlns="http://www.w3.org/2000/svg" xmlns:xlink="http://www.w3.org/1999/xlink" x="0px" y="0px" viewBox="0 0 661.4 168.1" style="enable-background:new 0 0 661.4 168.1;" xml:space="preserve">
<style type="text/css">
	.st0{fill:#00599D;}
	.st1{fill:#FFDD00;}
	.st2{fill:#FFFFFF;}
	.st3{fill:#00B3F0;}
</style>
<g>
	<rect y="26.6" class="st0" width="310.2" height="132.1"/>
	<rect x="283.8" y="0.2" class="st1" width="43.6" height="132.1"/>
	<g>
		<path class="st2" d="M48.8,69.4c3.8-0.9,8-4.2,8-10.5c0-6.9-4.7-11-12.6-11H26.8l-0.4,0.4v35.9l0.4,0.4H33l0.4-0.4V70.3l0.5-0.5    h5.8l0.9,0.5l10.6,13.8l1,0.5h3.1l0.4-0.4V79l-7-9.1L48.8,69.4L48.8,69.4z M44.3,63.8H33.9l-0.4-0.4v-9l0.4-0.4h10.4    c3.8,0,5.5,1.5,5.5,4.9C49.7,62.3,48,63.8,44.3,63.8z"/>
		<path class="st2" d="M64.6,95.1c7.6,0,9.5-4.9,11.5-9.8l8.5-21.2v-5.2l-0.4-0.4h-4.6L79.1,59l-6.5,18.3H72L65.6,59l-0.5-0.5h-4.6    L60,58.9v5.2l8.5,20.7v0.6c-0.5,1.9-1.1,3.7-3.9,3.6h-3.1l-0.4,0.4v5.2l0.4,0.4h3.1V95.1z"/>
		<path class="st2" d="M111.8,74.1l0.4-0.4v-2.1c0-10-6.8-13.6-12.6-13.6C93.8,58,87,61.6,87,71.6c0,6.3,3.4,13.6,13.1,13.6    c8.8,0,10.6-5.8,11-7.7l-0.4-0.4h-6.2l-0.5,0.5c-0.5,1-2,1.7-3.8,1.7c-4.5,0-5.5-3.4-5.5-4.7l0.4-0.4L111.8,74.1L111.8,74.1z     M94.7,68.7c0-1.3,0.8-4.7,4.9-4.7s4.9,3.5,4.9,4.7l-0.4,0.4h-9L94.7,68.7z"/>
		<path class="st2" d="M123.7,60.9L123,59l-0.5-0.5h-5.7l-0.4,0.4v25.3l0.4,0.4h6.2l0.4-0.4V71.6c0-5,1.7-7.1,6-7.1h3.6l0.4-0.4    v-5.2l-0.4-0.4h-3.1c-4.9,0-5.9,2.4-5.9,2.4H123.7z"/>
		<path class="st2" d="M149.9,69.1c-0.5-0.1-1.1-0.2-1.6-0.2c-2.6-0.4-4.9-0.7-4.9-2.6s1.5-2.3,3.9-2.3c2.6,0,3.8,0.5,3.9,1.7    l0.4,0.4h6.2l0.4-0.4c0-4.8-4.2-7.7-11-7.7c-6.9,0-11,2.9-11,7.8c0,4.4,3.3,7.2,9.9,8.3c0.4,0.1,0.8,0.1,1.2,0.2    c2.6,0.4,4.2,0.6,4.2,2.6s-2.5,2.3-4.4,2.3c-2.3,0-4.4-0.3-4.4-2.7l-0.4-0.4h-6.2l-0.4,0.4c0,5.4,4.4,8.8,11.5,8.8    c5.6,0,11.5-2.2,11.5-8.3C158.7,70.6,152.7,69.6,149.9,69.1z"/>
		<path class="st2" d="M174.8,58c-7.9,0-13.1,5.3-13.1,13.6s5.1,13.6,13.1,13.6c7.9,0,13.1-5.3,13.1-13.6S182.8,58,174.8,58z     M174.8,79.2c-3.8,0-6-2.8-6-7.6c0-4.8,2.2-7.6,6-7.6s6,2.8,6,7.6C180.8,76.4,178.6,79.2,174.8,79.2z"/>
		<path class="st2" d="M209.9,84.7h6.2l0.4-0.4V68.4c0-6.4-3.8-10.4-9.9-10.4c-2.7,0-5.3,1-7,2.9h-0.5l-0.6-1.9l-0.5-0.5h-5.7    l-0.4,0.4v25.3l0.4,0.4h6.2l0.4-0.4V71.1c0-4.7,2-7.1,6-7.1c2.9,0,4.4,1.7,4.4,4.9v15.3L209.9,84.7z"/>
		<path class="st2" d="M55.7,95.9l-0.4-0.4h-6.2l-0.4,0.4v22.2c0,5.7-2.6,8.6-7.6,8.6s-7.6-2.9-7.6-8.6V95.9l-0.4-0.4h-6.2l-0.4,0.4    v22.2c0,9.5,5.2,14.7,14.7,14.7s14.7-5.2,14.7-14.7V95.9H55.7z"/>
		<g>
			<polygon class="st2" points="91.3,95.5 90.9,95.9 90.9,101.1 91.3,101.5 97.6,101.5 98,101.1 98,95.9 97.6,95.5    "/>
			<polygon class="st2" points="97.6,132.3 98,131.9 98,106.5 97.6,106.1 91.3,106.1 90.9,106.5 90.9,131.9 91.3,132.3    "/>
		</g>
		<polygon class="st2" points="121.8,106.1 121.3,106.6 114.8,123.4 114.3,123.4 107.8,106.6 107.3,106.1 102.7,106.1 102.2,106.5     102.2,111.7 111.2,131.8 111.7,132.3 117.4,132.3 117.8,131.8 126.8,111.7 126.8,106.5 126.4,106.1   "/>
		<path class="st2" d="M192,116.7c-0.5-0.1-1.1-0.2-1.6-0.2c-2.6-0.4-4.9-0.7-4.9-2.6c0-1.9,1.5-2.3,3.9-2.3c2.6,0,3.8,0.5,3.9,1.7    l0.4,0.4h6.2l0.4-0.4c0-4.8-4.2-7.7-11-7.7c-6.9,0-11,2.9-11,7.8c0,4.4,3.3,7.2,9.9,8.3c0.4,0.1,0.8,0.1,1.2,0.2    c2.6,0.4,4.2,0.6,4.2,2.6s-2.5,2.3-4.4,2.3c-2.3,0-4.4-0.3-4.4-2.7l-0.4-0.4h-6.2l-0.4,0.4c0,5.4,4.4,8.8,11.5,8.8    c5.6,0,11.5-2.2,11.5-8.3C200.8,118.2,194.8,117.2,192,116.7z"/>
		<g>
			<polygon class="st2" points="211.7,132.3 212.2,131.9 212.2,106.5 211.7,106.1 205.5,106.1 205.1,106.5 205.1,131.9 205.5,132.3         "/>
			<polygon class="st2" points="205.5,95.5 205.1,95.9 205.1,101.1 205.5,101.5 211.7,101.5 212.2,101.1 212.2,95.9 211.7,95.5         "/>
		</g>
		<path class="st2" d="M229.5,132.3h4.7l0.4-0.4v-5.2l-0.4-0.4h-4.7c-1.1,0-1.8-0.6-1.8-1.8v-11.9l0.4-0.4h6l0.4-0.4v-5.2l-0.4-0.4    h-6l-0.4-0.4v-5l-0.4-0.4h-6.2l-0.4,0.4v5l-0.4,0.4h-3.9l-0.4,0.4v5.2l0.4,0.4h3.9l0.4,0.4v11.9    C220.7,131.5,226.9,132.3,229.5,132.3z"/>
		<path class="st2" d="M78.9,132.3h6.2l0.4-0.4v-15.8c0-6.4-3.8-10.4-9.9-10.4c-2.7,0-5.3,1-7,2.9h-0.5l-0.6-1.9l-0.5-0.5h-5.7    l-0.4,0.4v25.3l0.4,0.4h6.2l0.4-0.4v-13.2c0-4.7,2-7.1,6-7.1c2.9,0,4.4,1.7,4.4,4.9v15.3L78.9,132.3z"/>
		<path class="st2" d="M153.9,121.7l0.4-0.4v-2.1c0-10-6.8-13.6-12.6-13.6s-12.6,3.6-12.6,13.6c0,6.3,3.4,13.6,13.1,13.6    c8.8,0,10.6-5.8,11-7.7l-0.4-0.4h-6.2l-0.5,0.5c-0.5,1-2,1.7-3.8,1.7c-4.5,0-5.5-3.4-5.5-4.7l0.4-0.4h16.7V121.7z M136.8,116.3    c0-1.3,0.8-4.7,4.9-4.7c4.1,0,4.9,3.5,4.9,4.7l-0.4,0.4h-9L136.8,116.3z"/>
		<path class="st2" d="M165.8,108.5l-0.7-1.9l-0.5-0.5H159l-0.4,0.4v25.3l0.4,0.4h6.2l0.4-0.4v-12.7c0-5,1.7-7.1,6-7.1h3.6l0.4-0.4    v-5.2l-0.4-0.4h-3.1c-4.9,0-5.9,2.4-5.9,2.4L165.8,108.5L165.8,108.5z"/>
		<path class="st2" d="M242.5,142.7c7.6,0,9.5-4.9,11.5-9.8l8.5-21.2v-5.2l-0.4-0.4h-4.6l-0.5,0.5l-6.5,18.3h-0.6l-6.4-18.3    l-0.5-0.5h-4.6l-0.4,0.4v5.2l8.5,20.7v0.6c-0.6,1.9-1.4,3.6-3.9,3.6H240l-0.4,0.4v5.2l0.4,0.4h2.5V142.7z"/>
	</g>
</g>
<g>
	<g>
		<path class="st3" d="M573.1,53.6V33.5L494.8,0.8l-79.3,32.8v50.2l19.8-3.9v32.2l79.8-15.7l77.8,15.7V61.9L573.1,53.6z M570.1,52.4    l-55.4-23.2l-18.3,7.5v-32l73.7,30.9V52.4z M493.3,65.4l-55,10.8V63.9l55-22.7V65.4z M496.3,40l16.8-6.9v35.5l-16.8-3.4V40z     M516.1,33.1l54,22.5v24.5l-53.9-10.9L516.1,33.1z M418.5,80.1V35.6l74.8-30.8V38l-58,23.9v14.9L418.5,80.1z M438.3,79.3l57-11.2    l17.8,3.6v22l-74.8,14.7V79.3z M589.9,108.4l-73.7-14.9V72.3l57,11.5V56.9l16.8,7L589.9,108.4L589.9,108.4z"/>
		<path class="st3" d="M593.7,113.1l-78.6-15.9l-80.6,15.9V80.9l-19.8,3.9V33l80.1-33l79.1,33v20.1l19.8,8.3V113.1z M515.1,95.6h0.2    l76.8,15.5V62.4l-19.8-8.3v-20L494.9,1.8l-78.5,32.3v48.7l19.8-3.9v32.2L515.1,95.6z M437.5,109.5V78.6l57.8-11.4l18.6,3.8v23.4    L437.5,109.5z M439.2,80v27.5l73.1-14.4V72.4l-17-3.4L439.2,80z M590.7,109.5l-75.4-15.2v-23l57,11.5V55.7l18.4,7.7V109.5z     M517,92.9l72.1,14.6v-43L574,58.2v26.7l-57-11.5V92.9z M417.7,81.1V35l76.4-31.5v35l-58,23.9v15.1L417.7,81.1z M419.4,36.1v43    l15.1-3V61.3l58-23.9V6L419.4,36.1z M570.9,81.1l-55.6-11.2v-38l55.6,23.2V81.1z M517,68.5l52.3,10.6V56.2L517,34.4V68.5z     M437.5,77.2V63.4l56.6-23.3v26.1L437.5,77.2z M439.2,64.5v10.8l53.3-10.5V42.5L439.2,64.5z M514,69.6l-18.4-3.7V39.5l18.4-7.6    V69.6z M497.2,64.5l15.1,3.1V34.3l-15.1,6.3V64.5z M570.9,53.6l-56.3-23.5L495.5,38V3.5L570.9,35V53.6z M514.6,28.3l54.6,22.8v-15    L497.1,6v29.5L514.6,28.3z"/>
	</g>
</g>
<g>
	<path d="M517.7,158.8h-24.8l-0.6-0.6v-37.5l0.6-0.6h6.6l0.6,0.6v30.9l0.6,0.6h17.1l0.6,0.6v5.5L517.7,158.8z"/>
	<path d="M529.8,126.8h-6.6l-0.6-0.6v-5.5l0.6-0.6h6.6l0.6,0.6v5.5L529.8,126.8z M529.8,158.8h-6.6l-0.6-0.6v-26.5l0.6-0.6h6.6   l0.6,0.6v26.5L529.8,158.8z"/>
	<path d="M552.4,159.3c-5,0-7.2-2.8-7.2-2.8h-0.6l-0.6,1.7l-0.6,0.6h-6.1l-0.6-0.6v-37.5l0.6-0.6h6.6l0.6,0.6v12.7h0.6   c0,0,2.2-2.8,7.2-2.8c6.6,0,12.1,5.5,12.1,14.3C564.5,153.8,559,159.3,552.4,159.3z M550.7,137.3c-4.4,0-6.1,3.3-6.1,7.7   s1.7,7.7,6.1,7.7c4.4,0,6.1-3.3,6.1-7.7S555.1,137.3,550.7,137.3z"/>
	<path d="M584.9,137.8H581c-4.4,0-6.1,2.2-6.1,7.2v13.2l-0.6,0.6h-6.6l-0.6-0.6v-26.5l0.6-0.6h6.1l0.6,0.6l0.6,1.7h0.6   c0,0,1.1-2.2,6.1-2.2h3.3l0.6,0.6v5.5L584.9,137.8z"/>
	<path d="M609.7,158.8h-6.1l-0.6-0.6l-0.6-1.1H602c0,0-2.2,2.2-6.1,2.2c-6.1,0-9.9-3.3-9.9-8.8c0-8.3,7.7-9.4,12.1-9.4   c2.2,0,3.9,0.6,3.9,0.6l0.6-0.6v-0.5c0-2.8-0.6-3.3-3.9-3.3c-1.7,0-3.3,0-3.9,1.7l-0.6,0.6h-6.6L587,139c0-3.3,2.8-8.3,11.6-8.3   s11.6,4.4,11.6,12.7v14.9L609.7,158.8z M602,147.2c0,0-1.1-0.6-3.3-0.6c-3.3,0-5,1.1-5,3.3c0,1.7,1.1,2.8,3.9,2.8s5-1.7,5-3.9v-1.1   L602,147.2z"/>
	<path d="M632.9,137.8H629c-4.4,0-6.1,2.2-6.1,7.2v13.2l-0.6,0.6h-6.6l-0.6-0.6v-26.5l0.6-0.6h6.1l0.6,0.6l0.6,1.7h0.6   c0,0,1.1-2.2,6.1-2.2h3.3l0.6,0.6v5.5L632.9,137.8z"/>
	<path d="M652.2,159.3c-2.2,5.5-4.4,8.8-12.1,8.8h-2.8l-0.6-0.6V162l0.6-0.6h2.8c2.8,0,3.3-0.6,3.9-2.2v-0.6l-8.8-21.5v-5.5l0.6-0.6   h5l0.6,0.6l6.6,18.7h0.6l6.6-18.7l0.6-0.6h5l0.6,0.6v5.5L652.2,159.3z"/>
</g>
</svg>